<?xml version="1.0" encoding="iso-8859-1"?>
<!-- Generator: Adobe Illustrator 19.0.0, SVG Export Plug-In . SVG Version: 6.00 Build 0)  -->
<svg version="1.1" id="Capa_1" xmlns="http://www.w3.org/2000/svg" xmlns:xlink="http://www.w3.org/1999/xlink" x="0px" y="0px"
	 viewBox="0 0 512 512" style="enable-background:new 0 0 512 512;" xml:space="preserve">
<g>
	<g>
		<path d="M291.584,243.069c15.27-11.735,25.151-30.125,25.157-50.882c-0.007-35.452-28.734-64.18-64.194-64.187
			c-35.46,0.007-64.187,28.734-64.194,64.187c0.007,20.75,9.888,39.147,25.157,50.882c-39.902,15.623-68.193,54.362-68.199,99.805
			c0,2.733,1.107,5.403,3.037,7.341c1.931,1.937,4.607,3.037,7.341,3.037h193.73c2.733,0,5.403-1.107,7.341-3.037
			c1.937-1.931,3.024-4.607,3.024-7.341C359.777,297.431,331.479,258.692,291.584,243.069z M209.104,192.194
			c0.007-12.025,4.844-22.818,12.723-30.706c7.895-7.881,18.688-12.717,30.713-12.723c12.025,0.008,22.826,4.844,30.713,12.723
			c7.881,7.895,12.717,18.688,12.723,30.706c-0.007,12.025-4.844,22.818-12.723,30.713c-7.895,7.881-18.688,12.717-30.713,12.723
			c-12.025-0.007-22.825-4.85-30.713-12.723C213.946,215.013,209.11,204.219,209.104,192.194z M166.739,332.496
			c2.352-19.739,11.285-37.403,24.645-50.778c15.685-15.671,37.245-25.324,61.156-25.33c23.911,0.007,45.472,9.659,61.156,25.33
			c13.36,13.375,22.293,31.039,24.652,50.778H166.739z"/>
	</g>
</g>
<g>
	<g>
		<path d="M494.703,96.865c0-15.221-12.454-27.676-27.676-27.676h-27.676V27.676C439.351,12.454,426.898,0,411.675,0H44.973
			C29.751,0,17.297,12.454,17.297,27.676v456.648c0,15.221,12.454,27.676,27.676,27.676h366.702
			c15.221,0,27.676-12.454,27.676-27.676v-41.513h27.676c15.221,0,27.676-12.454,27.676-27.676v-83.028
			c0-6.566-2.414-12.537-6.268-17.297c3.86-4.76,6.268-10.732,6.268-17.297v-83.028c0-6.566-2.414-12.537-6.268-17.297
			c3.86-4.76,6.268-10.732,6.268-17.297V96.865z M69.189,491.243H44.973c-3.75,0-6.919-3.168-6.919-6.919V27.676
			c0-3.75,3.169-6.919,6.919-6.919h24.216V491.243z M411.677,491.243H89.946V20.757h321.729c3.75,0,6.919,3.169,6.919,6.919v456.648
			h0.001C418.595,488.074,415.426,491.243,411.677,491.243z M473.946,415.135c0,3.75-3.169,6.919-6.919,6.919h-27.676v-96.865
			h27.676c3.75,0,6.919,3.169,6.919,6.919V415.135z M473.946,297.513c0,3.75-3.169,6.919-6.919,6.919h-27.676v-96.865h27.676
			c3.75,0,6.919,3.169,6.919,6.919V297.513z M473.946,179.892c0,3.75-3.169,6.919-6.919,6.919h-27.676V89.946h27.676
			c3.75,0,6.919,3.169,6.919,6.919V179.892z"/>
	</g>
</g>
<g>
</g>
<g>
</g>
<g>
</g>
<g>
</g>
<g>
</g>
<g>
</g>
<g>
</g>
<g>
</g>
<g>
</g>
<g>
</g>
<g>
</g>
<g>
</g>
<g>
</g>
<g>
</g>
<g>
</g>
</svg>
